<?xml version="1.0" standalone="no"?>
<!DOCTYPE svg PUBLIC "-//W3C//DTD SVG 20010904//EN"
 "http://www.w3.org/TR/2001/REC-SVG-20010904/DTD/svg10.dtd">
<svg version="1.0" xmlns="http://www.w3.org/2000/svg"
 width="640.000000pt" height="360.000000pt" viewBox="0 0 640.000000 360.000000"
 preserveAspectRatio="xMidYMid meet">

<g transform="translate(0.000000,360.000000) scale(0.100000,-0.100000)"
fill="#000000" stroke="none">
<path d="M2159 3330 c-185 -21 -212 -26 -261 -51 -21 -11 -50 -19 -67 -19 -17
0 -31 -6 -35 -16 -4 -11 -14 -15 -30 -12 -21 4 -25 0 -30 -34 -5 -33 -9 -38
-26 -33 -14 5 -20 2 -20 -9 0 -10 9 -16 23 -17 12 0 16 -3 10 -6 -25 -9 -13
-23 15 -18 25 6 25 5 10 -8 -10 -8 -18 -19 -18 -26 0 -6 -12 -16 -26 -22 -26
-9 -26 -10 -8 -30 11 -12 14 -23 9 -27 -16 -11 -11 -53 8 -66 16 -13 16 -15
-8 -30 -32 -21 -32 -40 0 -34 29 6 32 0 8 -18 -17 -13 -17 -14 5 -20 37 -10
25 -19 -48 -37 -39 -9 -87 -24 -108 -33 -33 -14 -35 -17 -20 -28 21 -16 13
-26 -19 -26 -14 0 -21 -4 -18 -10 3 -5 15 -10 27 -10 17 0 18 -2 8 -15 -17
-21 -6 -29 20 -15 12 6 24 9 27 7 2 -3 -5 -10 -16 -17 -12 -6 -21 -17 -21 -25
0 -22 -20 -28 -39 -11 -20 18 -66 21 -76 5 -4 -6 -14 -8 -23 -4 -9 3 -45 1
-78 -6 -47 -9 -61 -16 -57 -26 3 -8 14 -13 24 -10 15 4 16 2 6 -14 -19 -31
-63 -17 -51 16 7 17 3 18 -52 12 -32 -4 -102 -16 -154 -26 -228 -48 -305 -61
-353 -59 -46 1 -49 2 -31 15 10 8 29 11 40 9 14 -4 31 2 45 15 24 20 24 20 2
14 -23 -6 -44 19 -36 43 6 15 -9 15 -42 0 -18 -8 -24 -17 -19 -30 4 -13 0 -18
-15 -18 -24 0 -31 -23 -28 -97 1 -45 4 -52 19 -48 13 5 17 0 16 -26 -1 -25 -7
-33 -30 -41 -32 -11 -35 -24 -13 -55 13 -19 13 -22 -1 -27 -21 -8 -7 -28 16
-21 10 3 25 -2 36 -12 17 -17 16 -18 -18 -28 -47 -13 -58 -24 -30 -32 28 -7
28 -26 -1 -46 -30 -20 -18 -29 23 -17 27 8 37 6 52 -7 10 -9 18 -24 18 -34 0
-10 9 -21 20 -24 26 -8 26 -25 0 -25 -26 0 -26 -16 0 -30 28 -15 26 -42 -2
-39 -25 3 -88 -26 -88 -41 0 -4 25 -6 55 -3 36 4 55 2 55 -5 0 -14 -33 -24
-54 -16 -11 4 -16 1 -16 -10 0 -11 -9 -16 -27 -16 -20 0 -24 -3 -14 -9 9 -6
10 -11 2 -15 -21 -13 -11 -36 21 -50 29 -12 35 -12 45 1 6 8 22 13 35 11 20
-3 18 -6 -20 -26 -49 -26 -53 -39 -14 -48 50 -11 58 -18 25 -22 -45 -5 -42
-22 3 -22 27 0 37 5 41 20 7 28 31 25 39 -5 4 -18 11 -24 23 -21 9 3 77 6 151
7 98 2 140 6 152 16 11 10 18 11 23 3 6 -10 -50 -40 -75 -40 -5 0 -10 -7 -10
-15 0 -8 8 -15 18 -15 10 0 27 -7 38 -15 18 -15 16 -15 -26 -9 -25 3 -50 11
-57 16 -16 13 -33 2 -33 -22 0 -14 10 -20 40 -25 21 -4 49 -3 61 0 19 6 21 4
16 -14 -5 -21 10 -29 28 -13 6 5 24 5 40 2 l30 -7 -25 -10 c-14 -5 -44 -8 -67
-7 -34 2 -45 -1 -53 -17 -9 -15 -7 -21 7 -26 15 -6 14 -8 -7 -13 -15 -4 -24
-13 -24 -23 2 -19 -12 -23 -18 -5 -3 7 -12 9 -23 4 -17 -6 -18 -8 -1 -24 9 -9
31 -22 48 -27 l31 -11 -32 -31 c-35 -35 -38 -43 -17 -43 8 0 16 -10 18 -22 2
-15 11 -24 26 -26 26 -4 30 -38 8 -80 -12 -23 -12 -32 2 -64 9 -20 24 -39 34
-41 10 -3 18 -12 18 -21 0 -9 6 -16 14 -16 8 0 16 -10 18 -23 2 -17 9 -22 33
-21 30 1 48 -13 38 -28 -2 -5 -13 -6 -23 -3 -13 4 -22 -1 -30 -15 -9 -17 -8
-20 10 -20 11 0 20 5 20 10 0 6 5 10 10 10 6 0 10 -6 10 -14 0 -9 13 -13 42
-13 36 0 39 1 24 12 -13 10 -14 14 -4 18 9 4 7 6 -4 6 -28 1 -32 21 -4 21 18
0 25 -6 28 -22 4 -27 30 -35 113 -38 33 0 78 -4 100 -9 38 -6 38 -7 14 -14
-26 -7 -49 -37 -28 -37 6 0 8 -4 5 -8 -10 -16 23 -49 53 -55 22 -5 29 -11 25
-22 -4 -10 0 -15 15 -15 12 0 21 -5 21 -11 0 -5 -3 -8 -7 -6 -5 3 -17 1 -28
-4 -14 -5 -4 -8 33 -8 32 -1 52 3 52 10 0 8 4 8 13 2 18 -15 90 -15 99 0 6 9
8 9 8 0 0 -7 11 -13 25 -13 14 0 25 4 25 9 0 11 61 21 75 12 6 -3 -8 -9 -30
-12 -31 -5 -21 -7 45 -9 90 -4 328 -1 370 4 76 9 76 9 35 16 l-40 7 53 2 c40
1 52 -2 52 -14 0 -8 -4 -15 -9 -15 -12 0 -22 -27 -28 -70 -6 -47 12 -62 107
-90 126 -37 292 -52 515 -47 110 3 211 8 224 12 20 7 23 5 18 -8 -11 -30 32
-32 62 -3 20 20 37 26 69 26 29 0 44 5 49 16 3 8 12 13 19 10 7 -3 29 1 48 9
19 8 83 19 142 24 134 12 531 7 604 -8 57 -11 121 -18 225 -26 96 -7 131 -15
114 -26 -9 -5 -1 -6 22 -3 21 4 45 1 55 -5 17 -11 16 -12 -8 -8 -16 2 -25 0
-22 -5 4 -6 22 -7 41 -3 24 4 33 3 28 -4 -3 -6 -5 -11 -3 -11 2 0 25 -7 52
-15 38 -12 46 -12 37 -1 -6 7 -8 15 -5 19 3 3 -12 11 -35 18 -23 7 -41 15 -41
19 0 10 73 -4 129 -24 57 -21 61 -20 31 5 l-25 20 25 -7 c13 -4 30 -13 38 -20
7 -8 18 -14 23 -14 12 0 11 17 -1 25 -8 5 -8 11 0 20 11 13 38 14 78 1 12 -4
22 -4 22 1 0 18 -17 32 -59 49 -37 14 -41 19 -25 25 10 4 31 4 47 2 22 -5 26
-3 21 11 -4 11 -1 16 12 17 18 0 17 1 -1 9 -17 7 -17 9 -2 9 9 1 17 4 17 7 0
4 -8 13 -17 21 -16 13 -16 13 7 7 14 -4 31 -9 38 -11 6 -3 12 -1 12 3 0 9 -44
28 -122 55 -44 15 -51 31 -10 23 38 -8 40 23 3 39 -14 6 -30 17 -34 24 -5 8
-12 11 -17 8 -11 -7 -63 25 -56 33 3 3 12 -1 21 -8 8 -7 15 -8 15 -3 0 5 -12
15 -26 22 -27 12 -28 38 0 33 28 -5 18 7 -21 24 -28 12 -33 18 -20 21 27 7 20
22 -18 40 -19 9 -35 20 -35 25 0 11 2 10 39 -8 18 -9 35 -13 39 -9 10 10 -24
32 -84 54 -61 23 -112 65 -93 77 7 4 15 2 17 -4 6 -20 22 -13 22 10 0 16 3 19
11 11 12 -12 49 -6 49 8 0 15 22 10 35 -8 7 -9 17 -13 23 -9 17 10 15 36 -2
36 -20 0 -31 19 -17 33 8 8 20 0 46 -26 20 -20 31 -37 25 -37 -5 0 -10 -4 -10
-9 0 -17 69 -18 85 -2 14 14 16 14 21 -6 5 -18 14 -22 61 -25 30 -1 57 -1 59
1 11 11 54 8 54 -4 0 -10 9 -11 35 -5 19 4 37 4 40 0 2 -4 21 -8 42 -9 74 -3
90 -6 106 -19 10 -9 17 -10 22 -2 3 5 21 11 38 11 20 1 5 6 -38 14 -94 16
-125 25 -125 36 0 13 26 11 67 -6 45 -19 59 -19 43 0 -12 15 -11 16 22 19 7 1
13 -7 13 -16 0 -22 19 -24 23 -3 5 23 -18 46 -42 44 -37 -2 -41 1 -16 14 17 9
30 10 41 4 9 -6 25 -7 35 -3 18 7 18 8 1 20 -16 12 -15 14 11 19 16 3 39 3 52
0 20 -5 39 9 40 29 0 4 -22 10 -50 14 -53 7 -66 20 -26 26 20 3 22 6 15 26 -6
16 -16 22 -39 22 -37 0 -38 9 -3 34 23 17 26 18 20 2 -8 -19 19 -34 34 -19 5
5 40 6 81 2 40 -4 102 -8 138 -8 54 0 62 2 45 11 -11 7 -41 12 -67 12 -40 0
-48 3 -48 18 0 13 8 18 28 18 15 1 41 7 57 15 l30 14 -24 7 c-23 7 -23 8 -6
21 17 12 16 13 -14 13 -45 0 -29 20 17 21 22 1 28 3 15 6 -12 2 -27 10 -33 18
-6 8 -18 11 -26 8 -8 -3 -14 0 -14 6 0 6 5 11 11 11 5 0 7 5 3 11 -5 8 2 10
21 6 18 -3 34 1 44 10 11 11 30 14 72 11 44 -3 60 -1 64 10 8 21 -3 32 -31 32
-14 0 -27 7 -30 15 -4 8 -15 15 -27 15 -23 0 -71 14 -137 41 -25 10 -58 22
-75 28 l-30 10 29 -2 c51 -4 41 21 -11 28 -26 3 -84 19 -129 36 -44 16 -85 29
-91 29 -7 0 -15 5 -19 11 -4 7 0 9 12 6 11 -3 42 -9 69 -13 82 -11 41 14 -69
42 -54 13 -111 31 -127 40 -22 11 -34 12 -43 5 -16 -13 -27 -4 -19 15 3 9 -2
14 -16 14 -12 0 -21 4 -21 10 0 5 13 7 30 4 17 -4 30 -2 30 3 0 6 -17 13 -37
16 -29 5 -39 2 -50 -13 -20 -28 -36 -25 -31 5 3 14 1 25 -3 25 -5 0 -9 11 -9
25 0 28 -41 77 -48 56 -2 -7 4 -18 14 -26 18 -13 18 -14 -4 -35 -14 -13 -30
-19 -40 -15 -13 5 -14 8 -3 14 23 15 2 31 -39 29 -37 -1 -70 14 -70 33 0 15
27 10 34 -6 7 -19 26 -19 26 0 0 8 5 15 12 15 19 0 -8 23 -29 25 -10 0 -19 5
-20 10 -1 6 21 9 54 7 38 -3 53 -1 49 7 -9 14 35 14 89 0 45 -11 173 -12 213
-2 l27 7 -25 7 c-14 4 -49 7 -77 8 -51 1 -77 20 -30 22 12 0 -9 9 -48 20 -38
10 -77 17 -85 15 -8 -2 -5 -4 7 -5 25 -1 42 -21 18 -21 -46 0 -211 24 -221 31
-6 5 -19 7 -28 3 -9 -3 -16 -1 -16 5 0 6 19 11 45 11 27 0 45 -5 45 -11 0 -8
5 -7 15 1 19 16 4 30 -32 30 -13 0 -23 5 -23 11 0 7 11 9 30 6 25 -6 30 -3 30
14 0 11 7 22 17 26 25 10 84 7 91 -4 4 -5 64 -10 140 -11 73 -1 140 -5 150
-10 15 -7 52 -7 102 -1 8 1 41 -2 73 -6 31 -4 57 -3 57 1 0 5 -105 20 -232 32
-220 22 -274 33 -235 48 9 3 17 15 17 25 0 24 11 24 39 0 28 -24 87 -21 84 4
-1 16 10 17 128 12 84 -3 129 -2 129 5 0 6 -6 8 -14 5 -7 -3 -35 5 -62 18 -35
17 -52 21 -61 13 -9 -7 -17 -7 -28 2 -12 10 -16 9 -21 -3 -5 -15 -44 -12 -44
3 0 4 -10 8 -22 8 -13 0 -61 5 -108 11 -59 9 -86 9 -88 2 -5 -16 -22 -13 -22
4 0 17 -16 20 -25 5 -3 -5 -1 -10 4 -10 17 0 13 -18 -10 -41 -20 -20 -22 -20
-38 -5 -13 14 -14 18 -3 25 9 5 -1 8 -27 8 -23 0 -41 -5 -41 -10 0 -7 -4 -7
-12 1 -9 9 -16 8 -30 -5 -10 -9 -21 -13 -26 -8 -4 4 -1 10 6 12 27 10 12 31
-22 31 -45 0 -58 9 -50 34 4 15 2 19 -7 16 -8 -3 -14 -10 -14 -16 0 -7 -3 -12
-7 -12 -5 0 -12 0 -18 0 -5 0 -10 9 -10 20 0 22 0 22 -45 24 -17 1 -36 6 -43
10 -7 4 -12 1 -12 -8 0 -8 6 -17 13 -19 8 -4 7 -6 -3 -6 -8 0 -26 11 -39 24
-27 29 -46 33 -36 8 5 -15 4 -16 -6 -6 -7 7 -28 13 -45 13 -18 0 -39 7 -48 15
-17 17 -46 20 -46 5 0 -5 -4 -10 -10 -10 -5 0 -7 7 -4 15 4 8 1 15 -5 15 -6 0
-11 -4 -11 -10 0 -5 -9 -10 -21 -10 -11 0 -17 5 -14 10 3 6 1 10 -4 10 -6 0
-11 -4 -11 -9 0 -14 -73 -4 -117 15 -21 9 -44 16 -52 15 -7 -1 -11 1 -8 6 11
17 -30 56 -62 59 -17 2 -31 -1 -31 -6 0 -6 9 -10 20 -10 27 0 35 -22 19 -51
l-12 -23 -8 22 c-9 25 -29 30 -29 7 0 -8 -3 -15 -6 -15 -3 0 -12 7 -20 15 -9
8 -25 15 -37 15 -27 0 -87 22 -87 32 0 4 -7 8 -15 8 -9 0 -12 6 -9 15 4 9 0
15 -10 15 -9 0 -16 -5 -16 -11 0 -5 -5 -7 -11 -3 -6 3 -8 17 -5 30 5 17 2 24
-9 24 -8 0 -14 -3 -13 -7 1 -5 -4 -18 -12 -30 -13 -20 -15 -20 -39 -5 -16 11
-26 13 -28 5 -3 -7 -13 -8 -31 -2 -15 5 -39 11 -54 14 -16 3 -28 10 -28 16 0
11 22 9 78 -7 12 -4 22 -2 22 4 0 21 -150 40 -150 19 0 -7 -7 -4 -14 6 -8 10
-19 16 -26 15 -7 -2 -15 3 -17 10 -4 10 12 13 68 11 41 -1 79 0 84 1 6 1 12 1
15 0 3 -1 32 -3 65 -4 33 -2 79 -6 103 -10 35 -6 42 -5 42 8 0 10 -6 13 -15
10 -8 -4 -15 -1 -15 5 0 15 27 14 42 -2 10 -11 15 -11 29 1 10 8 31 17 49 18
28 4 30 2 20 -15 -12 -24 7 -42 21 -20 6 10 9 11 9 2 0 -7 7 -13 15 -13 9 0
14 8 12 23 -2 20 2 22 43 22 25 0 82 -3 128 -7 62 -5 82 -4 79 5 -2 7 -16 14
-32 17 -16 3 -30 11 -33 18 -4 14 14 16 23 2 3 -5 17 -10 31 -10 17 0 24 5 24
20 0 17 -7 20 -42 20 -24 0 -50 4 -58 10 -8 5 -19 5 -25 0 -13 -11 -85 -2 -85
10 0 11 30 21 42 14 6 -4 40 -8 75 -10 81 -3 126 -20 118 -44 -4 -13 2 -19 26
-24 48 -9 97 -8 80 3 -8 5 -20 7 -27 4 -6 -2 -15 0 -19 6 -3 6 -15 11 -26 11
-10 0 -19 7 -19 15 0 18 49 16 277 -11 143 -17 133 -16 133 -5 0 5 -52 14
-115 21 -63 7 -115 16 -115 21 0 5 14 6 32 2 20 -4 29 -3 25 4 -6 9 -86 21
-184 28 -13 1 -32 10 -43 20 -17 15 -25 17 -39 8 -13 -8 -23 -7 -41 2 -14 7
-28 11 -32 9 -5 -3 -13 -2 -20 2 -6 4 -41 9 -77 10 -36 1 -94 7 -129 13 -35 5
-70 7 -79 4 -10 -4 -14 -2 -12 6 5 14 107 22 115 9 7 -11 44 -10 44 1 0 6 15
4 33 -4 24 -10 37 -11 44 -4 8 8 49 8 134 0 198 -17 334 -17 309 -1 -11 7 -11
10 -2 10 7 0 10 5 7 11 -4 6 -13 8 -19 6 -7 -3 -32 -1 -57 3 -24 4 -100 11
-169 14 -69 4 -163 11 -210 16 -47 5 -128 12 -180 15 -52 4 -99 10 -105 13 -5
3 -23 6 -40 6 -20 1 -30 6 -30 16 0 11 14 16 58 18 32 1 67 7 78 13 22 11 136
2 145 -12 3 -5 10 -9 15 -9 6 0 4 7 -5 15 -8 8 -30 15 -49 15 -18 0 -36 3 -40
6 -3 3 -34 8 -68 10 -36 3 -70 11 -80 20 -10 9 -45 16 -100 19 -149 9 -212 15
-218 21 -8 9 296 -5 339 -16 19 -4 29 -8 23 -9 -24 -2 -13 -21 12 -21 18 0 23
4 19 15 -4 10 0 15 10 15 9 0 19 -7 22 -15 7 -18 45 -20 42 -2 -4 17 68 10 98
-10 17 -11 24 -12 24 -3 0 8 9 10 26 6 17 -5 23 -3 19 4 -4 6 3 10 17 10 36 0
68 -11 62 -21 -3 -5 10 -9 28 -9 25 0 29 3 18 10 -13 8 -12 10 3 10 9 0 17 -7
17 -15 0 -8 7 -15 15 -15 8 0 15 4 15 9 0 5 12 11 28 13 45 7 6 15 -118 26
-102 9 -115 8 -127 -6 -11 -16 -12 -16 -13 -1 0 22 -29 29 -131 29 -47 0 -153
7 -235 15 -223 22 -717 36 -732 20 -2 -2 -15 0 -28 5 -13 5 -24 6 -24 2 0 -4
-32 -8 -70 -9 -50 -2 -70 1 -70 10 0 6 -11 -1 -24 -16 -14 -17 -27 -24 -31
-18 -3 6 -19 11 -35 11 -15 0 -30 6 -33 13 -2 6 -8 8 -13 4 -5 -4 -2 -12 5
-16 16 -10 6 -31 -15 -31 -9 0 -12 5 -8 11 3 6 0 15 -7 20 -22 14 -28 11 -22
-11 4 -14 0 -20 -12 -20 -12 0 -15 5 -10 20 3 11 2 20 -3 20 -6 0 -12 -5 -14
-11 -3 -8 -22 -7 -66 2 -37 8 -57 16 -49 21 6 4 20 5 30 2 9 -3 17 -1 17 5 0
17 -154 10 -310 -15 -26 -4 -31 -3 -20 5 8 6 48 16 88 22 40 7 75 16 78 20 7
11 -9 11 -197 -11z m-59 -39 c0 -11 -52 -21 -65 -13 -5 4 4 10 20 13 44 10 45
10 45 0z m-100 -21 c0 -5 -5 -10 -11 -10 -5 0 -7 5 -4 10 3 6 8 10 11 10 2 0
4 -4 4 -10z m1390 0 c0 -13 -28 -25 -38 -16 -3 4 0 11 8 16 20 13 30 12 30 0z
m-302 -7 c-15 -2 -42 -2 -60 0 -18 2 -6 4 27 4 33 0 48 -2 33 -4z m408 -4 c4
-8 -6 -10 -35 -6 -56 6 -64 17 -13 17 22 0 44 -5 48 -11z m-1113 -26 c-7 -2
-19 -2 -25 0 -7 3 -2 5 12 5 14 0 19 -2 13 -5z m-534 -27 c-2 -2 -18 -7 -34
-10 l-30 -6 30 14 c26 12 46 14 34 2z m1389 -40 c20 -12 2 -28 -24 -22 -15 4
-24 2 -24 -5 0 -8 -4 -8 -12 -2 -8 7 -95 9 -225 7 -138 -3 -213 0 -213 6 0 11
32 14 135 11 39 -1 84 3 100 7 36 11 245 9 263 -2z m172 -5 c0 13 10 16 53 14
28 -1 52 -3 52 -5 0 -1 27 -3 60 -5 33 -1 72 -3 88 -4 33 -1 38 -31 5 -31
-107 0 -146 1 -163 4 -11 3 -55 5 -97 5 -61 1 -78 4 -78 15 0 20 52 25 67 6
11 -13 12 -13 13 1z m-1620 -5 c0 -2 -7 -6 -15 -10 -8 -3 -15 -1 -15 4 0 6 7
10 15 10 8 0 15 -2 15 -4z m925 -11 c-23 -8 -135 -11 -135 -3 0 4 33 8 73 7
39 0 68 -2 62 -4z m-865 -10 c0 -7 -61 -37 -66 -32 -9 9 27 37 47 37 10 0 19
-2 19 -5z m1910 -5 c11 -7 7 -10 -17 -10 -18 0 -33 5 -33 10 0 13 30 13 50 0z
m-290 -4 c0 -3 -4 -8 -10 -11 -5 -3 -10 -1 -10 4 0 6 5 11 10 11 6 0 10 -2 10
-4z m73 -13 c-7 -2 -19 -2 -25 0 -7 3 -2 5 12 5 14 0 19 -2 13 -5z m437 -31
c0 -9 -58 -7 -67 2 -4 3 10 6 30 6 21 0 37 -4 37 -8z m78 -9 c-10 -2 -28 -2
-40 0 -13 2 -5 4 17 4 22 1 32 -1 23 -4z m117 -3 c29 -7 29 -8 5 -10 -14 -1
-29 -2 -33 -1 -4 1 -16 3 -27 4 -11 2 -23 6 -26 10 -9 9 42 7 81 -3z m100 -10
c4 -6 -6 -9 -24 -7 -42 5 -52 17 -13 17 17 0 34 -4 37 -10z m-698 -6 c-3 -3
-12 -4 -19 -1 -8 3 -5 6 6 6 11 1 17 -2 13 -5z m318 -13 c-3 -6 -11 -8 -17 -5
-6 4 -5 9 3 15 16 10 23 4 14 -10z m65 -112 c0 -5 -4 -9 -10 -9 -5 0 -10 7
-10 16 0 8 5 12 10 9 6 -3 10 -10 10 -16z m98 -7 c-6 -7 -18 -10 -27 -6 -9 4
-24 6 -33 6 -10 0 -18 3 -18 8 0 5 20 8 44 7 35 -2 42 -5 34 -15z m-488 -72
c0 -5 -2 -10 -4 -10 -3 0 -8 5 -11 10 -3 6 -1 10 4 10 6 0 11 -4 11 -10z m173
-17 c-7 -2 -19 -2 -25 0 -7 3 -2 5 12 5 14 0 19 -2 13 -5z m-1963 -7 c0 -3 -4
-8 -10 -11 -5 -3 -10 -1 -10 4 0 6 5 11 10 11 6 0 10 -2 10 -4z m1610 -33 c0
-8 -4 -11 -10 -8 -5 3 -29 7 -52 9 -24 2 -52 7 -62 11 -14 6 -17 5 -11 -4 5
-9 2 -12 -10 -9 -10 1 -20 8 -22 15 -3 8 14 13 54 15 68 4 113 -8 113 -29z
m40 17 c0 -5 -4 -10 -9 -10 -6 0 -13 5 -16 10 -3 6 1 10 9 10 9 0 16 -4 16
-10z m-450 -10 c0 -5 -4 -10 -10 -10 -5 0 -10 5 -10 10 0 6 5 10 10 10 6 0 10
-4 10 -10z m484 -5 c3 -9 0 -15 -9 -15 -8 0 -15 7 -15 15 0 8 4 15 9 15 5 0
11 -7 15 -15z m-750 -21 c5 -14 4 -15 -8 -5 -8 7 -19 11 -23 8 -4 -2 -17 -1
-28 4 -16 6 -12 8 16 8 25 1 39 -4 43 -15z m-1064 -14 c0 -5 -4 -10 -10 -10
-5 0 -10 5 -10 10 0 6 5 10 10 10 6 0 10 -4 10 -10z m1860 -10 c0 -7 -14 -8
-37 -4 -52 9 -54 14 -5 14 23 0 42 -5 42 -10z m60 -10 c0 -5 -7 -7 -15 -4 -8
4 -15 8 -15 10 0 2 7 4 15 4 8 0 15 -4 15 -10z m-1965 -40 c-3 -5 -13 -10 -21
-10 -8 0 -12 5 -9 10 3 6 13 10 21 10 8 0 12 -4 9 -10z m2182 -12 c-3 -8 -6
-5 -6 6 -1 11 2 17 5 13 3 -3 4 -12 1 -19z m-69 -3 c55 -17 85 -41 35 -29 -36
9 -111 42 -97 43 6 1 33 -6 62 -14z m-1913 -5 c3 -5 2 -10 -4 -10 -5 0 -17 -3
-27 -7 -16 -6 -17 -5 -4 10 17 19 26 21 35 7z m-58 -26 c-3 -3 -12 -4 -19 -1
-8 3 -5 6 6 6 11 1 17 -2 13 -5z m-348 -76 c20 -20 20 -38 0 -38 -5 0 -9 7 -9
15 0 22 -31 18 -37 -5 -3 -11 -9 -20 -14 -20 -11 0 9 53 24 62 16 10 13 11 36
-14z m106 8 c17 -17 9 -26 -22 -26 -21 0 -22 3 -13 20 13 24 17 24 35 6z m140
4 c-3 -5 -11 -10 -16 -10 -6 0 -7 5 -4 10 3 6 11 10 16 10 6 0 7 -4 4 -10z
m2082 -4 c-2 -6 -12 -10 -23 -10 -63 3 -74 5 -74 13 0 5 23 8 50 8 30 -1 49
-5 47 -11z m49 -8 c-18 -10 -39 -2 -31 12 3 4 15 6 26 3 19 -5 19 -7 5 -15z
m-2543 -36 c-2 -13 3 -22 11 -22 17 0 29 -27 16 -35 -5 -3 -19 6 -32 20 -12
14 -28 25 -37 25 -11 0 -8 -7 9 -25 13 -14 22 -25 19 -26 -2 -1 -21 -2 -41 -3
-45 -3 -47 6 -12 57 18 28 31 37 47 35 16 -2 21 -9 20 -26z m2752 18 c3 -5 1
-10 -4 -10 -6 0 -11 5 -11 10 0 6 2 10 4 10 3 0 8 -4 11 -10z m55 -11 c0 -4
-7 -6 -15 -3 -8 4 -15 10 -15 15 0 4 7 6 15 3 8 -4 15 -10 15 -15z m40 1 c0
-5 -4 -10 -10 -10 -5 0 -10 5 -10 10 0 6 5 10 10 10 6 0 10 -4 10 -10z m55 -8
c-3 -3 -11 0 -18 7 -9 10 -8 11 6 5 10 -3 15 -9 12 -12z m-2995 -2 c0 -15 -27
-23 -47 -15 -17 7 -16 8 2 15 28 12 45 12 45 0z m-47 -33 c9 -4 17 -16 17 -27
0 -30 -44 -27 -58 5 -7 15 -20 25 -32 25 -11 0 -20 5 -20 11 0 6 7 9 15 6 8
-4 17 -2 21 4 4 7 12 5 22 -4 10 -8 25 -17 35 -20z m3547 23 c0 -5 -2 -10 -4
-10 -3 0 -8 5 -11 10 -3 6 -1 10 4 10 6 0 11 -4 11 -10z m-975 -10 c3 -5 1
-10 -4 -10 -6 0 -11 5 -11 10 0 6 2 10 4 10 3 0 8 -4 11 -10z m784 -16 c2 -2
-12 -4 -32 -4 -20 0 -39 5 -42 11 -5 7 5 8 32 3 21 -4 40 -8 42 -10z m-2921
-12 c2 -7 -2 -10 -12 -6 -9 3 -16 11 -16 16 0 13 23 5 28 -10z m2515 11 c-7
-2 -21 -2 -30 0 -10 3 -4 5 12 5 17 0 24 -2 18 -5z m202 -15 c6 -4 2 -8 -7 -8
-10 0 -18 7 -18 17 0 9 3 12 8 7 4 -5 12 -12 17 -16z m-2797 0 c19 -19 14 -28
-13 -28 -24 0 -34 18 -18 33 9 10 17 9 31 -5z m2732 2 c0 -5 -4 -10 -9 -10 -6
0 -13 5 -16 10 -3 6 1 10 9 10 9 0 16 -4 16 -10z m390 0 c0 -5 -4 -10 -9 -10
-6 0 -13 5 -16 10 -3 6 1 10 9 10 9 0 16 -4 16 -10z m80 -6 c0 -2 -9 -4 -20
-4 -11 0 -20 4 -20 9 0 5 9 7 20 4 11 -3 20 -7 20 -9z m-3668 -17 c-2 -14 3
-15 28 -11 17 4 30 2 30 -3 0 -20 -113 -32 -125 -14 -7 12 44 53 59 48 6 -2
10 -11 8 -20z m408 -2 c0 -15 -35 -29 -50 -20 -5 3 -18 0 -30 -7 -14 -9 -25
-10 -37 -2 -23 14 -28 34 -9 34 9 0 16 -4 16 -10 0 -5 7 -10 15 -10 8 0 15 6
15 14 0 8 12 16 28 18 35 5 52 -1 52 -17z m2650 -5 c11 -11 20 -22 20 -25 0
-5 -29 0 -72 12 -32 8 -19 25 25 32 4 0 16 -8 27 -19z m720 10 c0 -5 -4 -10
-10 -10 -5 0 -10 5 -10 10 0 6 5 10 10 10 6 0 10 -4 10 -10z m-640 -10 c0 -12
-28 -25 -36 -17 -9 9 6 27 22 27 8 0 14 -5 14 -10z m-3240 -15 c0 -8 5 -15 11
-15 5 0 7 -4 4 -10 -11 -18 -45 -11 -45 8 0 10 3 22 7 25 11 12 23 8 23 -8z
m3332 7 c22 -9 2 -37 -29 -39 -28 -2 -38 12 -21 31 14 17 24 18 50 8z m863
-42 c-6 -8 -15 -23 -18 -32 -4 -10 -13 -15 -25 -11 -11 2 -30 -1 -43 -8 -17
-9 -24 -9 -27 0 -5 15 -49 14 -55 -1 -3 -10 -8 -10 -18 -2 -24 18 -93 33 -131
29 -29 -4 -38 -2 -38 10 0 8 7 15 16 15 8 0 12 5 9 10 -3 6 -2 10 3 10 6 0 12
-6 15 -14 4 -10 16 -13 34 -11 15 2 28 4 28 5 0 1 13 3 28 4 16 1 32 8 38 16
8 13 11 13 22 -1 21 -27 54 -40 79 -30 13 4 29 6 36 3 9 -3 13 2 10 14 -5 26
34 50 43 26 4 -9 1 -24 -6 -32z m-4253 15 c-6 -32 -16 -39 -32 -20 -10 12 -10
18 0 30 20 24 38 18 32 -10z m376 13 c-3 -7 -12 -14 -21 -16 -12 -2 -15 1 -11
12 7 19 38 22 32 4z m3212 -25 c0 -21 -3 -24 -9 -14 -5 8 -22 20 -38 27 l-28
12 38 1 c34 1 37 -1 37 -26z m-320 7 c0 -5 -4 -10 -10 -10 -5 0 -10 5 -10 10
0 6 5 10 10 10 6 0 10 -4 10 -10z m430 -3 c0 -5 11 -6 25 -3 18 5 25 2 25 -8
0 -10 -12 -13 -47 -10 -27 2 -52 3 -57 4 -5 0 -4 6 2 13 12 14 52 17 52 4z
m154 -18 c-3 -5 -16 -9 -30 -9 -28 0 -33 26 -6 32 20 5 44 -10 36 -23z m546
22 c0 -15 -16 -22 -34 -15 -25 9 -19 24 9 24 14 0 25 -4 25 -9z m-4230 -51 c0
-5 -4 -10 -9 -10 -6 0 -13 5 -16 10 -3 6 1 10 9 10 9 0 16 -4 16 -10z m3455
-10 c3 -5 -1 -10 -9 -10 -9 0 -16 5 -16 10 0 6 4 10 9 10 6 0 13 -4 16 -10z
m85 0 c0 -5 -4 -10 -10 -10 -5 0 -10 5 -10 10 0 6 5 10 10 10 6 0 10 -4 10
-10z m104 -16 c9 -23 1 -28 -16 -11 -8 8 -23 17 -34 20 -12 3 -8 5 12 6 21 1
34 -5 38 -15z m131 -4 c3 -5 1 -10 -4 -10 -6 0 -11 5 -11 10 0 6 2 10 4 10 3
0 8 -4 11 -10z m30 -10 c3 -5 1 -10 -4 -10 -6 0 -11 5 -11 10 0 6 2 10 4 10 3
0 8 -4 11 -10z m65 6 c0 -2 -7 -6 -15 -10 -8 -3 -15 -1 -15 4 0 6 7 10 15 10
8 0 15 -2 15 -4z m-4185 -16 c-3 -5 -13 -10 -21 -10 -8 0 -12 5 -9 10 3 6 13
10 21 10 8 0 12 -4 9 -10z m905 -25 c0 -8 -7 -15 -15 -15 -16 0 -20 12 -8 23
11 12 23 8 23 -8z m3237 0 c0 -16 -24 -28 -39 -19 -5 3 1 12 14 19 12 7 23 13
24 14 0 1 1 -6 1 -14z m-4096 -10 c-1 -15 -24 -12 -29 3 -3 9 2 13 12 10 10
-1 17 -7 17 -13z m727 2 c40 13 55 14 64 5 18 -18 8 -21 -67 -24 -63 -3 -70
-1 -73 17 -3 19 -2 19 11 3 13 -16 17 -16 65 -1z m-778 -7 c0 -5 -7 -10 -15
-10 -8 0 -15 5 -15 10 0 6 7 10 15 10 8 0 15 -4 15 -10z m3950 1 c0 -12 -29
-23 -41 -15 -18 10 -9 24 16 24 14 0 25 -4 25 -9z m-3280 -16 c0 -8 -6 -15
-14 -15 -20 0 -29 17 -14 23 22 9 28 7 28 -8z m3300 -25 c0 -5 -5 -10 -11 -10
-5 0 -7 5 -4 10 3 6 8 10 11 10 2 0 4 -4 4 -10z m-3388 -13 c-16 -7 -26 -7
-34 1 -8 8 -2 10 23 10 31 -1 32 -2 11 -11z m3237 -13 c2 -2 2 -6 -1 -9 -9 -9
-58 6 -58 17 0 9 49 3 59 -8z m-3309 -4 c0 -5 -4 -10 -10 -10 -5 0 -10 5 -10
10 0 6 5 10 10 10 6 0 10 -4 10 -10z m3472 -20 c34 0 10 -17 -26 -18 -21 -1
-39 5 -48 15 -12 15 -10 16 21 10 18 -4 42 -7 53 -7z m-3922 -14 c0 -20 -19
-31 -32 -18 -6 6 -7 15 -4 21 10 16 36 13 36 -3z m4133 3 c22 0 22 0 1 -9 -18
-7 -130 -7 -144 0 -8 5 94 17 108 13 8 -1 23 -3 35 -4z m92 -19 c-2 -4 -16 -5
-30 -3 -13 3 -23 9 -20 13 2 4 16 5 30 3 13 -3 23 -9 20 -13z m-296 -36 c2 -2
1 -7 -2 -10 -4 -4 -21 1 -39 10 l-33 17 35 -7 c19 -3 37 -8 39 -10z m163 -14
c17 0 3 -45 -15 -48 -15 -3 -18 0 -12 17 5 15 2 21 -10 21 -9 0 -13 5 -10 11
4 6 14 8 22 5 8 -3 19 -6 25 -6z m-72 -25 c0 -26 -14 -33 -25 -15 -9 14 1 40
15 40 5 0 10 -11 10 -25z m-425 -14 c7 -12 -12 -24 -25 -16 -11 7 -4 25 10 25
5 0 11 -4 15 -9z m97 -15 c22 -33 2 -33 -37 0 l-30 25 30 -7 c17 -4 33 -12 37
-18z m-3582 4 c0 -5 -7 -10 -16 -10 -8 0 -12 5 -9 10 3 6 10 10 16 10 5 0 9
-4 9 -10z m3649 -12 c5 -13 7 -25 5 -27 -5 -6 -44 30 -44 41 0 18 31 7 39 -14z
m385 6 c4 -10 1 -14 -6 -12 -15 5 -23 28 -10 28 5 0 13 -7 16 -16z m-283 -11
c13 -15 11 -16 -14 -9 -20 5 -29 2 -33 -9 -4 -8 -10 -15 -15 -15 -10 0 -12 33
-2 43 12 13 51 7 64 -10z m129 -17 c0 -3 -4 -8 -10 -11 -5 -3 -10 -1 -10 4 0
6 5 11 10 11 6 0 10 -2 10 -4z m-815 -56 c3 -5 2 -10 -4 -10 -5 0 -13 5 -16
10 -3 6 -2 10 4 10 5 0 13 -4 16 -10z m75 -19 c0 -11 -41 -22 -53 -14 -5 3 2
11 15 18 23 12 38 10 38 -4z m80 9 c0 -5 -5 -10 -11 -10 -5 0 -7 5 -4 10 3 6
8 10 11 10 2 0 4 -4 4 -10z m-3240 -204 c0 -17 -27 -29 -35 -16 -4 6 -3 15 0
20 9 15 35 12 35 -4z m393 -73 c18 -9 27 -18 21 -20 -16 -5 -64 15 -64 27 0
14 6 13 43 -7z m-88 -43 c-3 -5 -10 -10 -16 -10 -5 0 -9 5 -9 10 0 6 7 10 16
10 8 0 12 -4 9 -10z m195 -20 c0 -5 -4 -10 -10 -10 -5 0 -10 5 -10 10 0 6 5
10 10 10 6 0 10 -4 10 -10z m33 -61 c-7 -7 -36 -13 -65 -15 l-53 -3 40 14 c51
17 94 20 78 4z m-193 -74 c0 -8 -4 -15 -9 -15 -13 0 -22 16 -14 24 11 11 23 6
23 -9z m3442 -13 c-19 -6 -44 6 -37 18 4 7 14 6 28 -2 14 -7 17 -13 9 -16z
m133 -12 c16 -7 13 -9 -17 -9 -20 -1 -40 4 -43 9 -7 12 32 12 60 0z m251 -20
c75 -5 125 -14 153 -26 43 -20 56 -41 19 -30 -42 13 -160 27 -166 21 -4 -3 0
-10 8 -15 12 -8 10 -10 -7 -10 -15 0 -21 -5 -18 -15 15 -48 15 -48 30 -35 8 6
18 9 23 6 5 -3 18 1 28 9 10 8 26 14 34 14 10 0 11 -2 3 -6 -18 -7 -16 -53 1
-53 8 0 18 5 21 10 9 15 25 12 25 -5 0 -8 5 -15 10 -15 6 0 10 5 10 10 0 15
27 12 33 -3 3 -9 31 -16 78 -21 74 -7 88 -11 76 -22 -4 -4 -32 -2 -64 4 -96
19 -193 25 -193 13 0 -6 9 -11 20 -11 21 0 27 -14 11 -24 -14 -9 -40 4 -46 23
-3 9 -20 22 -37 29 -32 12 -34 11 -65 -25 -28 -34 -33 -36 -45 -22 -20 26 -64
32 -73 11 -6 -15 -8 -14 -16 6 -7 17 -16 22 -46 22 -50 0 -60 8 -60 48 0 32
10 41 22 22 4 -6 13 -7 21 -2 9 5 37 5 62 1 26 -4 65 -8 87 -8 l40 0 -26 22
c-60 51 -71 57 -114 68 -61 15 -59 33 3 24 26 -4 97 -10 158 -15z m-3876 0 c0
-5 -7 -10 -15 -10 -8 0 -15 5 -15 10 0 6 7 10 15 10 8 0 15 -4 15 -10z m15
-50 c-3 -5 -10 -10 -16 -10 -5 0 -9 5 -9 10 0 6 7 10 16 10 8 0 12 -4 9 -10z
m4125 -10 c0 -5 -2 -10 -4 -10 -3 0 -8 5 -11 10 -3 6 -1 10 4 10 6 0 11 -4 11
-10z m-556 -23 c21 -15 12 -49 -11 -40 -11 4 -14 2 -9 -5 5 -8 -3 -12 -23 -12
-32 0 -42 16 -16 26 8 4 12 11 9 16 -4 6 0 14 7 19 18 12 22 11 43 -4z m-3529
-57 c-27 -12 -35 -12 -35 0 0 6 12 10 28 9 24 0 25 -1 7 -9z m-55 -20 c0 -5
-4 -10 -10 -10 -5 0 -10 5 -10 10 0 6 5 10 10 10 6 0 10 -4 10 -10z m3929 -24
l24 -13 -22 -12 c-26 -14 -41 -7 -41 20 0 22 6 23 39 5z m366 4 c3 -5 -1 -10
-9 -10 -9 0 -16 5 -16 10 0 6 4 10 9 10 6 0 13 -4 16 -10z m-4242 -7 c-7 -2
-21 -2 -30 0 -10 3 -4 5 12 5 17 0 24 -2 18 -5z m3497 -13 c0 -5 -2 -10 -4
-10 -3 0 -8 5 -11 10 -3 6 -1 10 4 10 6 0 11 -4 11 -10z m540 -8 c13 -11 20
-24 16 -30 -10 -17 -26 -15 -26 3 0 9 -7 18 -15 21 -16 7 -21 24 -6 24 5 0 19
-8 31 -18z m-446 2 c26 -10 20 -37 -6 -30 -13 3 -26 6 -29 6 -4 0 -9 7 -13 15
-6 16 18 20 48 9z m536 -6 c0 -11 -38 -10 -44 1 -3 5 5 8 19 7 14 0 25 -4 25
-8z m-386 -14 c19 -7 21 -34 3 -34 -8 0 -22 9 -32 20 -16 17 -16 20 -2 20 8 0
22 -3 31 -6z m104 -34 c18 -11 30 -25 27 -31 -5 -7 -13 -5 -23 4 -10 8 -27 18
-39 21 -24 8 -32 26 -10 26 6 0 27 -9 45 -20z m70 -1 c-2 -6 -8 -10 -13 -10
-5 0 -11 4 -13 10 -2 6 4 11 13 11 9 0 15 -5 13 -11z m82 -14 c0 -8 -4 -15
-10 -15 -5 0 -10 7 -10 15 0 8 5 15 10 15 6 0 10 -7 10 -15z m-555 -5 c3 -5 1
-10 -4 -10 -6 0 -11 5 -11 10 0 6 2 10 4 10 3 0 8 -4 11 -10z m620 -11 c10
-15 -1 -22 -24 -14 -12 3 -19 11 -16 16 8 12 32 11 40 -2z m-3818 -195 c-3 -3
-12 -4 -19 -1 -8 3 -5 6 6 6 11 1 17 -2 13 -5z m483 -68 c0 -3 -4 -8 -10 -11
-5 -3 -10 -1 -10 4 0 6 5 11 10 11 6 0 10 -2 10 -4z m150 -6 c-20 -13 -50 -13
-50 0 0 6 15 10 33 10 24 0 28 -3 17 -10z m65 0 c-3 -5 -10 -10 -16 -10 -5 0
-9 5 -9 10 0 6 7 10 16 10 8 0 12 -4 9 -10z m68 3 c-7 -3 -13 -11 -13 -18 0
-8 -6 -17 -12 -21 -7 -4 -10 -3 -5 1 4 5 0 16 -8 25 -14 16 -13 17 17 17 18 1
27 -1 21 -4z m2477 -18 c19 -7 28 -13 20 -13 -8 0 -31 6 -50 13 -19 7 -28 13
-20 13 8 0 31 -6 50 -13z m-2660 -40 c-10 -18 -16 -22 -21 -13 -5 7 -1 20 8
30 22 24 30 14 13 -17z m81 26 c8 12 11 11 19 -1 18 -27 12 -43 -15 -38 -14 3
-28 1 -31 -3 -9 -15 -22 -10 -26 9 -4 18 34 45 41 29 2 -5 7 -3 12 4z m-186
-21 c-8 -24 7 -26 25 -5 15 19 23 14 14 -9 -9 -23 -54 -21 -54 2 0 17 8 32 17
32 3 0 1 -9 -2 -20z m305 10 c0 -5 -5 -10 -11 -10 -5 0 -7 5 -4 10 3 6 8 10
11 10 2 0 4 -4 4 -10z m2445 -8 c-3 -3 -11 0 -18 7 -9 10 -8 11 6 5 10 -3 15
-9 12 -12z m-2908 -5 c7 -8 3 -9 -39 -11 -26 -2 -35 4 -23 15 6 7 54 4 62 -4z
m65 -12 c-2 -14 -8 -25 -13 -25 -10 0 -11 12 -3 34 10 25 22 19 16 -9z m45 5
c-1 -20 -8 -25 -20 -14 -7 8 3 34 13 34 5 0 8 -9 7 -20z m-257 0 c0 -5 -4 -10
-10 -10 -5 0 -10 5 -10 10 0 6 5 10 10 10 6 0 10 -4 10 -10z m30 0 c0 -5 -5
-10 -11 -10 -5 0 -7 5 -4 10 3 6 8 10 11 10 2 0 4 -4 4 -10z m150 0 c0 -5 -2
-10 -4 -10 -3 0 -8 5 -11 10 -3 6 -1 10 4 10 6 0 11 -4 11 -10z m2747 -25 c-4
-8 -2 -17 2 -20 5 -3 11 2 15 10 7 20 46 20 46 0 0 -8 4 -15 10 -15 5 0 7 7 4
15 -4 8 -1 15 5 15 6 0 11 -7 11 -16 0 -10 6 -14 14 -11 8 3 16 1 18 -4 2 -5
13 -11 26 -12 16 -1 21 -6 16 -19 -3 -10 -1 -18 5 -18 6 0 11 7 11 16 0 11 6
14 23 8 12 -4 33 -8 47 -9 14 -2 28 -3 33 -4 4 0 7 -13 7 -27 0 -21 -4 -25
-17 -19 -10 3 -45 13 -78 22 -33 8 -64 19 -70 23 -5 4 -23 10 -40 13 -116 22
-175 38 -175 48 0 14 50 10 50 -3 0 -7 5 -5 11 5 12 21 33 23 26 2z m341 9
c12 -4 22 -11 22 -16 0 -10 -39 -1 -54 13 -12 11 -1 11 32 3z m-2818 -44 c-25
-3 -74 -3 -110 0 -63 5 -62 5 35 10 104 5 153 -1 75 -10z m174 11 c4 -6 20 -5
42 1 32 8 55 5 43 -6 -14 -14 -183 -10 -174 4 8 13 82 13 89 1z m211 -1 c-11
-5 -27 -9 -35 -9 -13 -1 -13 0 0 9 8 5 24 9 35 9 l20 0 -20 -9z m-248 -33 c3
-4 -38 -6 -93 -5 -97 1 -98 2 -29 7 85 7 113 7 122 -2z m2353 3 c0 -5 -7 -10
-15 -10 -8 0 -15 5 -15 10 0 6 7 10 15 10 8 0 15 -4 15 -10z m40 -10 c0 -5 -2
-10 -4 -10 -3 0 -8 5 -11 10 -3 6 -1 10 4 10 6 0 11 -4 11 -10z m350 6 c0 -3
-4 -8 -10 -11 -5 -3 -10 -1 -10 4 0 6 5 11 10 11 6 0 10 -2 10 -4z m70 -16 c0
-5 -4 -10 -10 -10 -5 0 -10 5 -10 10 0 6 5 10 10 10 6 0 10 -4 10 -10z m-110
-53 c0 -7 -4 -7 -12 1 -7 7 -20 12 -30 12 -10 0 -18 4 -18 9 0 6 12 6 30 0 17
-6 30 -16 30 -22z m95 -8 c22 -11 31 -17 20 -13 -11 3 -39 9 -62 11 -24 3 -43
10 -43 14 0 15 43 9 85 -12z"/>
<path d="M4911 1406 c2 -2 14 -9 26 -15 19 -10 22 -9 17 4 -4 8 -15 15 -27 15
-11 0 -18 -2 -16 -4z"/>
<path d="M4780 1310 c0 -5 5 -10 10 -10 6 0 10 5 10 10 0 6 -4 10 -10 10 -5 0
-10 -4 -10 -10z"/>
<path d="M1948 3333 c7 -3 16 -2 19 1 4 3 -2 6 -13 5 -11 0 -14 -3 -6 -6z"/>
<path d="M2688 3333 c7 -3 16 -2 19 1 4 3 -2 6 -13 5 -11 0 -14 -3 -6 -6z"/>
<path d="M2770 3329 c0 -5 5 -7 10 -4 6 3 10 8 10 11 0 2 -4 4 -10 4 -5 0 -10
-5 -10 -11z"/>
<path d="M2920 3330 c0 -5 5 -10 10 -10 6 0 10 5 10 10 0 6 -4 10 -10 10 -5 0
-10 -4 -10 -10z"/>
<path d="M1895 3320 c4 -6 11 -8 16 -5 14 9 11 15 -7 15 -8 0 -12 -5 -9 -10z"/>
<path d="M2536 3322 c-3 -6 -1 -14 5 -17 15 -10 25 3 12 16 -7 7 -13 7 -17 1z"/>
<path d="M2625 3320 c3 -5 13 -10 21 -10 8 0 14 5 14 10 0 6 -9 10 -21 10 -11
0 -17 -4 -14 -10z"/>
<path d="M4408 3213 c7 -3 16 -2 19 1 4 3 -2 6 -13 5 -11 0 -14 -3 -6 -6z"/>
<path d="M4460 3210 c0 -5 9 -10 21 -10 11 0 17 5 14 10 -3 6 -13 10 -21 10
-8 0 -14 -4 -14 -10z"/>
<path d="M1700 3189 c0 -5 5 -7 10 -4 6 3 10 8 10 11 0 2 -4 4 -10 4 -5 0 -10
-5 -10 -11z"/>
<path d="M4105 3180 c-3 -5 -1 -10 4 -10 6 0 11 5 11 10 0 6 -2 10 -4 10 -3 0
-8 -4 -11 -10z"/>
<path d="M4528 3173 c7 -3 16 -2 19 1 4 3 -2 6 -13 5 -11 0 -14 -3 -6 -6z"/>
<path d="M4633 3033 c9 -2 23 -2 30 0 6 3 -1 5 -18 5 -16 0 -22 -2 -12 -5z"/>
<path d="M4505 2960 c3 -5 8 -10 11 -10 2 0 4 5 4 10 0 6 -5 10 -11 10 -5 0
-7 -4 -4 -10z"/>
<path d="M4765 2870 c3 -5 12 -10 20 -10 8 0 17 5 20 10 4 6 -5 10 -20 10 -15
0 -24 -4 -20 -10z"/>
<path d="M4450 2850 c8 -5 30 -10 49 -10 45 0 37 6 -19 14 -31 4 -40 3 -30 -4z"/>
<path d="M4290 2837 c0 -17 48 -29 69 -17 16 9 7 15 -36 25 -26 5 -33 3 -33
-8z"/>
<path d="M4064 2815 c-8 -19 3 -35 24 -35 14 0 15 2 2 10 -8 5 -11 12 -7 16 3
4 13 1 22 -6 18 -15 20 1 3 18 -16 16 -37 15 -44 -3z"/>
<path d="M4130 2810 c0 -5 5 -10 10 -10 6 0 10 5 10 10 0 6 -4 10 -10 10 -5 0
-10 -4 -10 -10z"/>
<path d="M4190 2810 c0 -5 5 -10 11 -10 5 0 7 5 4 10 -3 6 -8 10 -11 10 -2 0
-4 -4 -4 -10z"/>
<path d="M4140 2780 c0 -5 5 -10 11 -10 5 0 7 5 4 10 -3 6 -8 10 -11 10 -2 0
-4 -4 -4 -10z"/>
<path d="M4278 2783 c7 -3 16 -2 19 1 4 3 -2 6 -13 5 -11 0 -14 -3 -6 -6z"/>
<path d="M1485 2760 c4 -6 11 -8 16 -5 14 9 11 15 -7 15 -8 0 -12 -5 -9 -10z"/>
<path d="M4268 2763 c7 -3 16 -2 19 1 4 3 -2 6 -13 5 -11 0 -14 -3 -6 -6z"/>
<path d="M3725 2750 c-3 -5 -1 -10 4 -10 6 0 11 5 11 10 0 6 -2 10 -4 10 -3 0
-8 -4 -11 -10z"/>
<path d="M1355 2740 c3 -5 12 -7 20 -3 21 7 19 13 -6 13 -11 0 -18 -4 -14 -10z"/>
<path d="M3850 2740 c0 -5 7 -10 15 -10 8 0 15 5 15 10 0 6 -7 10 -15 10 -8 0
-15 -4 -15 -10z"/>
<path d="M4000 2730 c0 -5 7 -10 16 -10 8 0 12 5 9 10 -3 6 -10 10 -16 10 -5
0 -9 -4 -9 -10z"/>
<path d="M4550 2720 c0 -5 5 -10 11 -10 5 0 7 5 4 10 -3 6 -8 10 -11 10 -2 0
-4 -4 -4 -10z"/>
<path d="M1319 2704 c-11 -14 -10 -15 11 -12 13 1 25 9 28 16 5 17 -23 15 -39
-4z"/>
<path d="M1410 2710 c0 -5 9 -10 20 -10 11 0 20 5 20 10 0 6 -9 10 -20 10 -11
0 -20 -4 -20 -10z"/>
<path d="M4590 2710 c0 -5 5 -10 11 -10 5 0 7 5 4 10 -3 6 -8 10 -11 10 -2 0
-4 -4 -4 -10z"/>
<path d="M4123 2685 c10 -21 19 -25 55 -25 45 0 50 6 27 36 -13 17 -14 17 -15
2 0 -22 -33 -24 -50 -3 -19 23 -29 18 -17 -10z"/>
<path d="M3923 2693 c-15 -5 -17 -23 -4 -23 5 0 11 7 15 15 3 8 4 15 3 14 -1
0 -8 -3 -14 -6z"/>
<path d="M3970 2690 c19 -13 30 -13 30 0 0 6 -10 10 -22 10 -19 0 -20 -2 -8
-10z"/>
<path d="M4240 2689 c0 -6 7 -9 15 -5 8 3 15 1 15 -4 0 -5 -8 -10 -17 -13 -17
-4 -17 -4 0 -12 12 -5 25 -1 39 11 19 17 21 17 15 2 -3 -10 -2 -20 2 -23 5 -3
11 2 15 10 7 19 36 20 36 1 0 -17 52 -28 63 -13 6 9 10 9 14 0 2 -7 18 -13 34
-13 18 0 28 4 24 10 -3 6 -2 10 4 10 5 0 14 -7 19 -17 7 -12 18 -15 46 -10 20
3 34 2 31 -2 -2 -5 7 -11 22 -14 26 -5 26 -4 8 9 -18 14 -18 14 3 14 12 0 22
4 22 9 0 9 -33 15 -140 26 -25 3 -74 9 -110 14 -130 19 -160 21 -160 10z m315
-49 c3 -5 1 -10 -4 -10 -6 0 -11 5 -11 10 0 6 2 10 4 10 3 0 8 -4 11 -10z"/>
<path d="M1155 2681 c-21 -4 -26 -9 -17 -15 17 -10 84 2 77 15 -7 10 -15 10
-60 0z"/>
<path d="M3960 2670 c0 -6 7 -10 15 -10 8 0 15 2 15 4 0 2 -7 6 -15 10 -8 3
-15 1 -15 -4z"/>
<path d="M1046 2661 c-3 -5 1 -11 9 -15 8 -3 15 -1 15 4 0 13 -18 22 -24 11z"/>
<path d="M1330 2654 c0 -9 5 -14 12 -12 18 6 21 28 4 28 -9 0 -16 -7 -16 -16z"/>
<path d="M4690 2631 c0 -5 7 -11 15 -15 8 -3 15 -1 15 3 0 5 -7 11 -15 15 -8
3 -15 1 -15 -3z"/>
<path d="M910 2619 c0 -7 -11 -8 -30 -4 -34 8 -37 -1 -11 -32 24 -28 54 -21
68 18 10 26 9 29 -8 29 -10 0 -19 -5 -19 -11z"/>
<path d="M4248 2613 c6 -2 18 -2 25 0 6 3 1 5 -13 5 -14 0 -19 -2 -12 -5z"/>
<path d="M997 2604 c-14 -14 -7 -21 23 -21 18 0 29 5 27 11 -4 13 -40 20 -50
10z"/>
<path d="M770 2590 c0 -5 5 -10 12 -10 6 0 19 -6 27 -14 14 -12 19 -12 35 -1
18 14 18 15 -8 25 -35 13 -66 13 -66 0z"/>
<path d="M950 2580 c0 -5 5 -10 10 -10 6 0 10 5 10 10 0 6 -4 10 -10 10 -5 0
-10 -4 -10 -10z"/>
<path d="M4805 2520 c-3 -5 -1 -10 4 -10 6 0 11 5 11 10 0 6 -2 10 -4 10 -3 0
-8 -4 -11 -10z"/>
<path d="M4950 2296 c0 -11 10 -16 33 -17 17 -1 49 -3 70 -4 28 -2 35 1 27 10
-6 7 -20 11 -33 11 -12 -1 -32 1 -44 6 -15 5 -23 4 -23 -3 0 -8 -5 -7 -15 1
-12 10 -15 10 -15 -4z"/>
<path d="M5100 2280 c0 -5 12 -10 26 -10 14 0 23 4 19 10 -3 6 -15 10 -26 10
-10 0 -19 -4 -19 -10z"/>
<path d="M5265 2281 c-9 -15 8 -35 24 -30 8 3 7 10 -2 23 -10 14 -16 16 -22 7z"/>
<path d="M5190 2272 c0 -14 11 -21 26 -15 21 8 17 23 -6 23 -11 0 -20 -4 -20
-8z"/>
<path d="M5350 2260 c0 -5 5 -10 10 -10 6 0 10 5 10 10 0 6 -4 10 -10 10 -5 0
-10 -4 -10 -10z"/>
<path d="M5450 2250 c0 -5 5 -10 10 -10 6 0 10 5 10 10 0 6 -4 10 -10 10 -5 0
-10 -4 -10 -10z"/>
<path d="M4970 2095 c-10 -12 -10 -15 4 -15 9 0 16 7 16 15 0 8 -2 15 -4 15
-2 0 -9 -7 -16 -15z"/>
<path d="M616 2075 c-18 -14 -18 -15 -1 -21 19 -8 51 7 48 22 -3 15 -27 14
-47 -1z"/>
<path d="M5090 2056 c0 -9 5 -16 10 -16 6 0 10 4 10 9 0 6 -4 13 -10 16 -5 3
-10 -1 -10 -9z"/>
<path d="M5175 2040 c-4 -6 -3 -16 3 -22 6 -6 12 -6 17 2 4 6 3 16 -3 22 -6 6
-12 6 -17 -2z"/>
<path d="M603 2034 c-25 -11 -12 -20 27 -20 22 1 41 6 43 11 2 11 -50 17 -70
9z"/>
<path d="M5730 1760 c0 -5 7 -10 16 -10 8 0 12 5 9 10 -3 6 -10 10 -16 10 -5
0 -9 -4 -9 -10z"/>
<path d="M5760 1730 c0 -5 9 -10 21 -10 11 0 17 5 14 10 -3 6 -13 10 -21 10
-8 0 -14 -4 -14 -10z"/>
<path d="M965 1580 c-3 -5 1 -10 10 -10 9 0 13 5 10 10 -3 6 -8 10 -10 10 -2
0 -7 -4 -10 -10z"/>
<path d="M5520 1320 c0 -11 4 -20 9 -20 13 0 32 26 24 33 -13 14 -33 6 -33
-13z"/>
<path d="M5593 1323 c-17 -6 -16 -30 0 -36 8 -3 20 -1 28 4 12 7 12 10 -1 22
-8 8 -21 13 -27 10z"/>
<path d="M5580 1245 c0 -8 9 -15 20 -15 11 0 20 7 20 15 0 8 -9 15 -20 15 -11
0 -20 -7 -20 -15z"/>
<path d="M1035 1230 c-4 -6 6 -10 22 -10 22 0 25 2 13 10 -19 12 -27 12 -35 0z"/>
<path d="M5455 1150 c-15 -24 12 -32 56 -16 24 8 37 15 28 16 -9 0 -30 3 -47
6 -18 4 -32 1 -37 -6z"/>
<path d="M4720 1133 c0 -13 29 -38 35 -31 3 3 -4 13 -15 23 -11 10 -20 13 -20
8z"/>
<path d="M4860 1005 c7 -8 22 -15 34 -15 20 1 20 2 -4 15 -33 19 -46 19 -30 0z"/>
<path d="M1148 973 c7 -3 16 -2 19 1 4 3 -2 6 -13 5 -11 0 -14 -3 -6 -6z"/>
<path d="M3799 559 c-10 -6 -4 -9 19 -9 17 0 32 2 32 4 0 9 -39 13 -51 5z"/>
<path d="M3895 560 c-4 -6 14 -10 47 -9 45 1 49 3 23 9 -44 11 -63 11 -70 0z"/>
<path d="M2480 530 c0 -4 9 -10 20 -13 11 -3 20 -2 20 3 0 4 -9 10 -20 13 -11
3 -20 2 -20 -3z"/>
<path d="M4288 533 c7 -3 16 -2 19 1 4 3 -2 6 -13 5 -11 0 -14 -3 -6 -6z"/>
<path d="M4330 529 c0 -5 5 -7 10 -4 6 3 10 8 10 11 0 2 -4 4 -10 4 -5 0 -10
-5 -10 -11z"/>
<path d="M2565 520 c3 -5 8 -10 11 -10 2 0 4 5 4 10 0 6 -5 10 -11 10 -5 0 -7
-4 -4 -10z"/>
</g>
</svg>
